<svg width="512" height="512" viewBox="0 0 312 312" fill="none" xmlns="http://www.w3.org/2000/svg">
  <rect width="312" height="312" rx="55" fill="#1B1638"/>
  <!-- trunk -->
  <path d="M156 243V159" stroke="#5A3FE0" stroke-width="10"/>
  <!-- right short branch -->
  <path d="M156 162C156 162 165.601 162 171.204 128.667C176.808 95.333 167.506 78 167.506 78" stroke="#5A3FE0" stroke-width="10"/>
  <!-- left branch -->
  <path d="M156 159C156 159 149.778 149.242 140 143.032C130.222 136.823 121.333 133.718 112.444 127.508C103.556 121.298 100 104 100 104" stroke="#5A3FE0" stroke-width="10"/>
  <!-- right long branch -->
  <path d="M156.127 166C156.127 166 154.336 150.231 164.188 137.615C174.04 125 190.161 117.341 199.118 106.527C208.074 95.714 213 84 213 84" stroke="#5A3FE0" stroke-width="10"/>
  <!-- nodes -->
  <circle cx="156" cy="242" r="13.5" fill="#5A3FE0" stroke="#5A3FE0"/>
  <circle cx="211" cy="84.5" r="13.5" fill="#5A3FE0" stroke="#5A3FE0"/>
  <circle cx="170" cy="77.5" r="13.5" fill="#5A3FE0" stroke="#5A3FE0"/>
  <circle cx="100" cy="105" r="13.5" fill="#5A3FE0" stroke="#5A3FE0"/>
  <!-- white dot accent -->
  <circle cx="170.5" cy="77.5" r="6.5" fill="#F4F0FB"/>
</svg>
